<svg width="1120" height="840" viewBox="0 0 1120 840" fill="none" xmlns="http://www.w3.org/2000/svg" role="img" aria-labelledby="title desc">
  <title id="title">DOC medical assistant dashboard illustration</title>
  <desc id="desc">A modern medical assistant dashboard with patient cards, health chart, and clinician workspace.</desc>
  <rect width="1120" height="840" rx="34" fill="#EAF5F2"/>
  <path d="M76 628C166 504 236 531 331 574C441 624 526 659 661 564C776 483 897 508 1044 607V840H76V628Z" fill="#D9ECE8"/>
  <circle cx="190" cy="167" r="94" fill="#F5C460"/>
  <circle cx="946" cy="188" r="128" fill="#E7856E"/>
  <circle cx="929" cy="187" r="88" fill="#FFE4DC"/>
  <rect x="178" y="140" width="720" height="528" rx="26" fill="#FFFFFF" stroke="#BBD4D1" stroke-width="4"/>
  <rect x="206" y="171" width="664" height="78" rx="18" fill="#12212B"/>
  <rect x="235" y="198" width="156" height="22" rx="11" fill="#FFFFFF"/>
  <rect x="725" y="195" width="42" height="28" rx="14" fill="#1D8C83"/>
  <rect x="782" y="195" width="42" height="28" rx="14" fill="#F5C460"/>
  <rect x="235" y="286" width="253" height="300" rx="18" fill="#F7FAFA" stroke="#D7E5E3" stroke-width="3"/>
  <circle cx="300" cy="356" r="38" fill="#1D8C83"/>
  <rect x="287" y="329" width="26" height="54" rx="8" fill="#FFFFFF"/>
  <rect x="273" y="343" width="54" height="26" rx="8" fill="#FFFFFF"/>
  <rect x="357" y="325" width="95" height="14" rx="7" fill="#12212B"/>
  <rect x="357" y="354" width="72" height="12" rx="6" fill="#789198"/>
  <rect x="272" y="430" width="176" height="18" rx="9" fill="#D9ECE8"/>
  <rect x="272" y="466" width="133" height="18" rx="9" fill="#F5E5BD"/>
  <rect x="272" y="502" width="155" height="18" rx="9" fill="#F2C9BE"/>
  <rect x="530" y="286" width="300" height="132" rx="18" fill="#F7FAFA" stroke="#D7E5E3" stroke-width="3"/>
  <path d="M562 361H602L625 323L662 390L691 342L717 361H796" stroke="#1D8C83" stroke-width="10" stroke-linecap="round" stroke-linejoin="round"/>
  <rect x="530" y="454" width="300" height="132" rx="18" fill="#F7FAFA" stroke="#D7E5E3" stroke-width="3"/>
  <rect x="562" y="493" width="54" height="54" rx="12" fill="#E7856E"/>
  <rect x="641" y="493" width="54" height="54" rx="12" fill="#1D8C83"/>
  <rect x="720" y="493" width="54" height="54" rx="12" fill="#F5C460"/>
  <path d="M231 662C250 620 300 600 345 617C363 563 424 536 475 562C509 507 587 493 638 542C674 514 726 520 756 556C803 547 850 574 869 619C902 622 930 638 948 662H231Z" fill="#CDE4DF"/>
  <rect x="618" y="617" width="200" height="42" rx="21" fill="#12212B"/>
  <rect x="643" y="632" width="95" height="12" rx="6" fill="#FFFFFF"/>
  <circle cx="774" cy="638" r="13" fill="#1D8C83"/>
  <path d="M132 425C132 390 160 362 195 362H221V522H195C160 522 132 494 132 459V425Z" fill="#1D8C83"/>
  <rect x="158" y="398" width="42" height="8" rx="4" fill="#FFFFFF"/>
  <rect x="158" y="425" width="34" height="8" rx="4" fill="#FFFFFF"/>
  <rect x="158" y="452" width="42" height="8" rx="4" fill="#FFFFFF"/>
  <path d="M900 404H930C963 404 990 431 990 464V496C990 529 963 556 930 556H900V404Z" fill="#F5C460"/>
  <path d="M930 438C948 438 962 452 962 470C962 488 948 502 930 502" stroke="#12212B" stroke-width="10" stroke-linecap="round"/>
</svg>
